<svg width="19" height="19" viewBox="0 0 19 19" fill="none" xmlns="http://www.w3.org/2000/svg">
<path d="M8.42034 15.3201L11.106 14.1801C11.1549 14.5103 11.093 14.8473 10.9297 15.1385C10.7665 15.4296 10.5112 15.6583 10.204 15.7887C9.89678 15.9191 9.55495 15.9439 9.23214 15.8591C8.90933 15.7742 8.6238 15.5847 8.42034 15.3201ZM12.5159 1.87697C14.0886 2.73648 15.2693 3.83953 16.0459 5.1846C16.8225 6.52966 17.1882 8.10393 17.1459 9.89534C17.1424 10.0453 17.0795 10.1878 16.971 10.2913C16.8625 10.3949 16.7172 10.4511 16.5673 10.4476C16.4173 10.4441 16.2749 10.3812 16.1713 10.2727C16.0677 10.1641 16.0115 10.0189 16.015 9.86896C16.0527 8.27659 15.7345 6.9074 15.0665 5.75007C14.3985 4.59274 13.3708 3.63294 11.9738 2.86994C11.8421 2.79795 11.7444 2.6766 11.7022 2.53259C11.66 2.38858 11.6767 2.2337 11.7487 2.10203C11.8207 1.97035 11.942 1.87266 12.086 1.83046C12.2301 1.78825 12.3849 1.80498 12.5166 1.87697H12.5159ZM5.61711 5.21023C6.65453 4.74698 7.83112 4.70387 8.89965 5.08995C9.96819 5.47603 10.8455 6.26125 11.3472 7.28061L11.4211 7.43894L12.3922 9.61864L13.6724 10.727C13.7426 10.7873 13.8029 10.8582 13.873 10.972L13.9175 11.058C13.9677 11.1712 13.9951 11.2932 13.9981 11.417C14.0012 11.5408 13.9798 11.664 13.9352 11.7795C13.8906 11.895 13.8236 12.0007 13.7382 12.0903C13.6527 12.18 13.5505 12.2519 13.4372 12.302L5.65029 15.7468C5.50685 15.8102 5.34987 15.8367 5.19357 15.8241C5.03727 15.8115 4.8866 15.76 4.7552 15.6744C4.6238 15.5889 4.51583 15.4719 4.44108 15.334C4.36632 15.1962 4.32714 15.0419 4.32709 14.8851L4.32633 13.1185L3.38991 11.0135C3.1543 10.4863 3.025 9.91791 3.00941 9.34074C2.99383 8.76356 3.09226 8.18898 3.29908 7.64991C3.5059 7.11083 3.81704 6.61786 4.21467 6.19922C4.61231 5.78058 5.08939 5.4445 5.61711 5.21023ZM12.3372 4.59198C13.0662 4.98932 13.6506 5.56761 14.0833 6.3178C14.5161 7.06799 14.725 7.86342 14.7046 8.69278C14.7028 8.76704 14.6864 8.84022 14.6564 8.90814C14.6263 8.97606 14.5832 9.0374 14.5294 9.08865C14.4756 9.1399 14.4123 9.18006 14.343 9.20683C14.2737 9.2336 14.1998 9.24646 14.1256 9.24468C14.0513 9.24289 13.9781 9.2265 13.9102 9.19644C13.8423 9.16637 13.7809 9.12323 13.7297 9.06946C13.6784 9.01569 13.6383 8.95235 13.6115 8.88306C13.5847 8.81378 13.5719 8.73989 13.5737 8.66563C13.5887 8.04588 13.4342 7.45553 13.1039 6.88327C12.7737 6.31026 12.3394 5.8805 11.7958 5.58495C11.6641 5.51316 11.5664 5.39201 11.524 5.24814C11.4817 5.10427 11.4982 4.94947 11.57 4.81779C11.6418 4.68612 11.763 4.58835 11.9068 4.54601C12.0507 4.50366 12.2055 4.5202 12.3372 4.59198Z" fill="#98D888"/>
</svg>
