<svg width="36" height="21" viewBox="0 0 36 21" fill="none" xmlns="http://www.w3.org/2000/svg">
<path d="M35.45 1.87739V13.1269C35.45 13.4585 35.3183 13.7764 35.0839 14.0108C34.8495 14.2452 34.5315 14.3769 34.2 14.3769C33.8685 14.3769 33.5506 14.2452 33.3162 14.0108C33.0818 13.7764 32.9501 13.4585 32.9501 13.1269V4.8929L17.5913 20.2673C17.3524 20.4983 17.0331 20.6274 16.7007 20.6274C16.3684 20.6274 16.0491 20.4983 15.8101 20.2673L0.810732 5.26788C0.611411 5.02502 0.50955 4.71671 0.524962 4.4029C0.540374 4.0891 0.671957 3.79225 0.894117 3.57009C1.11628 3.34793 1.41313 3.21635 1.72693 3.20093C2.04073 3.18552 2.34905 3.28738 2.59191 3.4867L16.7007 17.6111L31.1845 3.12734H22.9505C22.619 3.12734 22.301 2.99565 22.0666 2.76124C21.8322 2.52683 21.7005 2.2089 21.7005 1.87739C21.7005 1.54588 21.8322 1.22795 22.0666 0.993544C22.301 0.759132 22.619 0.627441 22.9505 0.627441H34.2C34.5315 0.627441 34.8495 0.759132 35.0839 0.993544C35.3183 1.22795 35.45 1.54588 35.45 1.87739Z" fill="#B5C2DD"/>
</svg>
