<svg width="21" height="21" viewBox="0 0 21 21" fill="none" xmlns="http://www.w3.org/2000/svg">
<path d="M9.15469 15.1068L16.2047 8.05684L14.8047 6.65684L9.15469 12.3068L6.30469 9.45684L4.90469 10.8568L9.15469 15.1068ZM10.5547 20.5068C9.17135 20.5068 7.87135 20.2442 6.65469 19.7188C5.43802 19.1935 4.37969 18.4812 3.47969 17.5818C2.57969 16.6818 1.86735 15.6235 1.34269 14.4068C0.818021 13.1902 0.555354 11.8902 0.554688 10.5068C0.554688 9.1235 0.817354 7.8235 1.34269 6.60684C1.86802 5.39017 2.58035 4.33184 3.47969 3.43184C4.37969 2.53184 5.43802 1.8195 6.65469 1.29484C7.87135 0.770169 9.17135 0.507503 10.5547 0.506836C11.938 0.506836 13.238 0.769503 14.4547 1.29484C15.6714 1.82017 16.7297 2.5325 17.6297 3.43184C18.5297 4.33184 19.2424 5.39017 19.7677 6.60684C20.293 7.8235 20.5554 9.1235 20.5547 10.5068C20.5547 11.8902 20.292 13.1902 19.7667 14.4068C19.2414 15.6235 18.529 16.6818 17.6297 17.5818C16.7297 18.4818 15.6714 19.1945 14.4547 19.7198C13.238 20.2452 11.938 20.5075 10.5547 20.5068Z" fill="#9BAED3"/>
</svg>
