<svg width="36" height="38" viewBox="0 0 36 38" fill="none" xmlns="http://www.w3.org/2000/svg">
<path d="M23.8289 29.4555C26.1911 29.4555 28.1158 27.5308 28.1158 25.1686C28.1158 22.8065 26.1911 20.8818 23.8289 20.8818C21.4493 20.8818 19.542 22.8065 19.542 25.1686C19.542 27.5308 21.4493 29.4555 23.8289 29.4555ZM32.9276 26.3585L35.5173 28.3882C35.7447 28.5807 35.8147 28.8956 35.6573 29.1756L33.2076 33.41C33.1341 33.5363 33.0179 33.6322 32.8799 33.6803C32.742 33.7284 32.5913 33.7257 32.4552 33.6724L29.4106 32.4476C28.7807 32.9375 28.0808 33.34 27.3459 33.6549L26.8735 36.892C26.8385 37.1894 26.576 37.4169 26.2786 37.4169H21.3793C21.0643 37.4169 20.8194 37.1894 20.7669 36.892L20.3119 33.6549C19.5595 33.34 18.8771 32.9375 18.2472 32.4476L15.1852 33.6724C14.9227 33.7774 14.5902 33.6724 14.4503 33.41L12.0006 29.1756C11.9261 29.0492 11.8992 28.9004 11.9249 28.756C11.9506 28.6116 12.0271 28.4811 12.1406 28.3882L14.7302 26.3585L14.6427 25.1686L14.7302 23.9613L12.1406 21.9491C12.0277 21.8558 11.9516 21.7254 11.926 21.5811C11.9003 21.4369 11.9268 21.2882 12.0006 21.1617L14.4503 16.9273C14.5902 16.6474 14.9227 16.5424 15.1852 16.6474L18.2472 17.8897C18.8771 17.3997 19.5595 16.9798 20.3119 16.6823L20.7669 13.4278C20.8194 13.1478 21.0643 12.9204 21.3793 12.9204H26.2786C26.576 12.9204 26.8385 13.1478 26.8735 13.4278L27.3459 16.6823C28.0808 16.9798 28.7807 17.3997 29.4106 17.8897L32.4552 16.6474C32.7527 16.5424 33.0501 16.6474 33.2076 16.9273L35.6573 21.1617C35.8147 21.4242 35.7447 21.7566 35.5173 21.9491L32.9276 23.9613L33.0151 25.1686L32.9276 26.3585ZM7.71372 11.2931C9.236 11.2931 10.4608 10.0683 10.4608 8.546C10.4608 7.02372 9.236 5.78139 7.71372 5.78139C6.9805 5.78139 6.27731 6.07267 5.75885 6.59113C5.24038 7.10959 4.94911 7.81278 4.94911 8.546C4.94911 10.0683 6.19144 11.2931 7.71372 11.2931ZM13.5579 9.31589L15.2552 10.6107C15.3776 10.7332 15.4126 10.9432 15.3076 11.1181L13.7329 13.8477C13.6454 14.0227 13.4354 14.0927 13.2604 14.0227L11.3007 13.2353L10.0059 14.0052L9.67344 16.0874C9.63845 16.2799 9.48097 16.4199 9.2885 16.4199H6.13894C5.92897 16.4199 5.7715 16.2799 5.7365 16.0874L5.45654 14.0052L4.12673 13.2353L2.13201 14.0227C1.97453 14.0927 1.78206 14.0227 1.67708 13.8477L0.1023 11.1181C-0.0026856 10.9432 0.0498073 10.7332 0.189787 10.6107L1.85205 9.31589L1.79956 8.546L1.85205 7.77611L0.189787 6.4813C0.117909 6.42047 0.0697453 6.33628 0.0537472 6.24349C0.0377492 6.15071 0.0549387 6.05525 0.1023 5.97387L1.67708 3.24425C1.78206 3.06928 1.97453 2.99929 2.13201 3.06928L4.10923 3.85667L5.45654 3.08678L5.7365 1.00457C5.7715 0.812099 5.92897 0.672119 6.13894 0.672119H9.2885C9.48097 0.672119 9.63845 0.812099 9.67344 1.00457L10.0059 3.08678L11.3007 3.85667L13.2604 3.06928C13.4354 2.99929 13.6454 3.06928 13.7329 3.24425L15.3076 5.97387C15.4126 6.14884 15.3776 6.35881 15.2552 6.4813L13.5579 7.77611L13.6104 8.546L13.5579 9.31589Z" fill="#B5C2DD"/>
</svg>
