<svg width="9" height="14" viewBox="0 0 9 14" fill="none" xmlns="http://www.w3.org/2000/svg">
<path d="M3.97751 13.476H5.06376V12.2769C6.95412 12.0653 8.16734 10.8803 8.16734 9.1592C8.16734 7.66384 7.34912 6.78919 5.5434 6.39419L5.06376 6.28133V3.24829C5.79733 3.40347 6.22055 3.89722 6.24876 4.65901H7.99805C7.94162 2.96615 6.84126 1.85168 5.06376 1.66829V0.469177H3.97751V1.66829C2.10125 1.86579 0.859822 3.05079 0.859822 4.70133C0.859822 6.25312 1.74857 7.24062 3.52608 7.62151L3.97751 7.72026V10.7251C3.06054 10.6122 2.53858 10.1044 2.52447 9.30027H0.71875C0.761072 11.0213 2.01661 12.164 3.97751 12.3051V13.476ZM3.92108 6.0274C3.01822 5.8299 2.62322 5.39258 2.62322 4.6449C2.62322 3.88311 3.13108 3.37525 3.97751 3.23418V6.04151L3.92108 6.0274ZM5.16251 7.97419C6.00894 8.15759 6.41805 8.59491 6.41805 9.31438C6.41805 10.0338 5.91019 10.5276 5.06376 10.6969V7.94598L5.16251 7.97419Z" fill="#75AEFF"/>
</svg>
