<svg width="21" height="35" viewBox="0 0 21 35" fill="none" xmlns="http://www.w3.org/2000/svg">
<path d="M9.00024 34.9981H11.8753V31.8243C16.8787 31.2642 20.0898 28.1278 20.0898 23.5724C20.0898 19.6145 17.9242 17.2995 13.1448 16.254L11.8753 15.9553V7.9275C13.8169 8.33823 14.9371 9.64508 15.0118 11.6614H19.6418C19.4924 7.18073 16.58 4.23097 11.8753 3.74557V0.571777H9.00024V3.74557C4.03419 4.26831 0.748387 7.40476 0.748387 11.7734C0.748387 15.8807 3.10073 18.4944 7.80541 19.5025L9.00024 19.7639V27.717C6.57323 27.4183 5.1917 26.0741 5.15436 23.9458H0.375C0.487016 28.5011 3.81016 31.5256 9.00024 31.899V34.9981ZM8.85089 15.2832C6.46121 14.7605 5.41573 13.603 5.41573 11.624C5.41573 9.60775 6.75992 8.26355 9.00024 7.89016V15.3206L8.85089 15.2832ZM12.1367 20.436C14.377 20.9214 15.4598 22.0789 15.4598 23.9832C15.4598 25.8874 14.1156 27.1943 11.8753 27.6423V20.3613L12.1367 20.436Z" fill="#98D888"/>
</svg>
