<svg width="17" height="16" viewBox="0 0 17 16" fill="none" xmlns="http://www.w3.org/2000/svg">
<path d="M15.0036 9.19951V14.855C15.0036 15.0693 14.9185 15.2748 14.7669 15.4263C14.6154 15.5778 14.4099 15.6629 14.1957 15.6629H2.88471C2.67044 15.6629 2.46494 15.5778 2.31342 15.4263C2.16191 15.2748 2.07679 15.0693 2.07679 14.855V9.19951H15.0036ZM10.56 0.312335C11.0372 0.312172 11.5067 0.432776 11.9247 0.662917C12.3427 0.893058 12.6957 1.22525 12.9508 1.62855C13.2059 2.03186 13.3548 2.49315 13.3836 2.96948C13.4123 3.44581 13.3201 3.92168 13.1155 4.35277L15.8115 4.35196C16.0258 4.35196 16.2313 4.43708 16.3828 4.58859C16.5343 4.74011 16.6194 4.94561 16.6194 5.15988V7.58366C16.6194 7.79793 16.5343 8.00343 16.3828 8.15495C16.2313 8.30646 16.0258 8.39158 15.8115 8.39158H1.26886C1.05459 8.39158 0.849088 8.30646 0.697573 8.15495C0.546058 8.00343 0.460938 7.79793 0.460938 7.58366V5.15988C0.460938 4.94561 0.546058 4.74011 0.697573 4.58859C0.849088 4.43708 1.05459 4.35196 1.26886 4.35196L3.96491 4.35277C3.67709 3.74817 3.61316 3.06106 3.7845 2.41375C3.95584 1.76643 4.35133 1.20093 4.90056 0.817896C5.4498 0.434866 6.11714 0.25917 6.78378 0.322085C7.45043 0.385 8.07311 0.682443 8.54099 1.16146C8.8036 0.892042 9.1176 0.678065 9.46441 0.532209C9.81122 0.386353 10.1838 0.311585 10.56 0.312335ZM6.52037 1.92818C6.20915 1.92834 5.90991 2.04822 5.68467 2.263C5.45942 2.47777 5.32544 2.77097 5.31049 3.08183C5.29553 3.3927 5.40075 3.6974 5.60433 3.93281C5.80791 4.16821 6.09426 4.31627 6.40403 4.3463L6.52037 4.35196H7.73226V3.14007C7.73225 2.83881 7.62002 2.54835 7.41748 2.32535C7.21493 2.10234 6.93658 1.96276 6.63672 1.93384L6.52037 1.92818ZM10.56 1.92818L10.4437 1.93384C10.1636 1.96067 9.90162 2.0841 9.70262 2.28295C9.50362 2.48181 9.38 2.7437 9.35296 3.02373L9.34811 3.14007V4.35196H10.56L10.6763 4.3463C10.9761 4.31724 11.2543 4.17761 11.4567 3.95461C11.6591 3.73162 11.7713 3.44124 11.7713 3.14007C11.7713 2.8389 11.6591 2.54853 11.4567 2.32553C11.2543 2.10254 10.9761 1.9629 10.6763 1.93384L10.56 1.92818Z" fill="#5FB9F5"/>
</svg>
