<svg width="36" height="36" viewBox="0 0 36 36" fill="none" xmlns="http://www.w3.org/2000/svg">
<path d="M26.3538 24.9979V20.6161H21.972V17.6948H26.3538V13.313H29.2751V17.6948H33.6569V20.6161H29.2751V24.9979H26.3538ZM16.1296 30.8403L11.4921 26.6776C9.73938 25.0953 8.23593 23.6833 6.98175 22.4418C5.72757 21.2003 4.69297 20.0318 3.87795 18.9363C3.06293 17.8409 2.46651 16.7819 2.0887 15.7595C1.71089 14.7371 1.52247 13.666 1.52344 12.5462C1.52344 10.2579 2.29026 8.35275 3.82391 6.83079C5.35755 5.30884 7.26851 4.54835 9.55681 4.54932C10.8227 4.54932 12.0277 4.81077 13.1718 5.33367C14.316 5.85657 15.3019 6.60537 16.1296 7.58009C16.9572 6.60635 17.9432 5.85754 19.0873 5.33367C20.2314 4.80979 21.4365 4.54835 22.7023 4.54932C24.7715 4.54932 26.5062 5.17641 27.9065 6.43059C29.3067 7.68477 30.1768 9.15122 30.5166 10.83C30.0784 10.6595 29.6402 10.532 29.202 10.4473C28.7639 10.3626 28.3378 10.3197 27.924 10.3187C25.4653 10.3187 23.3718 11.1771 21.6434 12.8938C19.915 14.6105 19.0508 16.6977 19.0508 19.1554C19.0508 20.4213 19.3064 21.6205 19.8176 22.7529C20.3288 23.8854 21.047 24.8528 21.972 25.6552C21.5095 26.069 20.9067 26.5987 20.1638 27.2443C19.4208 27.8899 18.782 28.4556 18.2474 28.9415L16.1296 30.8403Z" fill="#98D888"/>
</svg>
