<svg width="53" height="54" viewBox="0 0 53 54" fill="none" xmlns="http://www.w3.org/2000/svg">
<path fill-rule="evenodd" clip-rule="evenodd" d="M15.4071 35.7887L35.6896 15.5062C30.0161 11.1953 21.8887 11.6295 16.7095 16.8087C11.5304 21.9879 11.0962 30.1152 15.4071 35.7887ZM37.1811 37.2802C32.0011 42.4602 23.8719 42.8937 18.1984 38.5806L38.4815 18.2975C42.7946 23.9711 42.3611 32.1002 37.1811 37.2802ZM39.9727 40.0718C32.7779 47.2666 21.1128 47.2666 13.918 40.0718C6.72317 32.877 6.72317 21.2119 13.918 14.0171C21.1128 6.82229 32.7779 6.82229 39.9727 14.0171C47.1675 21.2119 47.1675 32.877 39.9727 40.0718Z" fill="#B5C2DD"/>
<path fill-rule="evenodd" clip-rule="evenodd" d="M28.1391 39.0572H26.0643V36.8207C24.8903 36.7363 23.8487 36.4639 22.9693 36.0284L25.3389 33.6588C25.5638 33.7228 25.8058 33.771 26.0643 33.8029V32.9334L28.1391 30.8586V33.749C29.7558 33.4256 30.7258 32.4825 30.7258 31.1083C30.7258 30.263 30.4301 29.6216 29.8262 29.1715L32.1921 26.8056C33.4677 27.729 34.067 29.0431 34.067 30.8119C34.067 34.0993 31.7497 36.3627 28.1391 36.7668V39.0572ZM28.1391 19.6808L26.0643 21.7556V19.4949C24.4476 19.7644 23.4775 20.7344 23.4775 22.1894C23.4775 22.8594 23.6436 23.399 23.998 23.8219L21.6364 26.1835C20.6184 25.2201 20.1094 23.9202 20.1094 22.2972C20.1094 19.1446 22.4806 16.8812 26.0643 16.504V14.2136H28.1391V16.504C29.0743 16.6005 29.9114 16.8319 30.6357 17.1842L28.2684 19.5515C28.2259 19.541 28.1828 19.5311 28.1391 19.5218V19.6808Z" fill="#B5C2DD"/>
</svg>
