<svg width="30" height="34" viewBox="0 0 30 34" fill="none" xmlns="http://www.w3.org/2000/svg">
<path d="M16.7047 0.867432C9.92826 0.867432 4.464 6.16992 4.12248 12.8385L0.671373 17.386C0.239985 17.9432 0.671373 18.842 1.4263 18.842H4.12248V24.2343C4.12248 26.2295 5.72222 27.8292 7.71739 27.8292H9.51484V33.2216H22.097V24.7915C26.357 22.7784 29.2868 18.4825 29.2868 13.4496C29.2868 6.51144 23.6788 0.867432 16.7047 0.867432ZM18.5021 20.6394H14.9072V18.842H18.5021V20.6394ZM21.378 12.5509C20.8993 13.3591 20.2177 14.0283 19.4008 14.4921V17.0445H14.0085V14.4921C11.4381 13.0002 10.5394 9.7109 12.0313 7.15852C13.5232 4.60614 16.8305 3.67146 19.4008 5.14537C21.9712 6.61928 22.8699 9.94457 21.378 12.5509Z" fill="#B5C2DD"/>
</svg>
