<svg width="40" height="20" viewBox="0 0 40 20" fill="none" xmlns="http://www.w3.org/2000/svg">
<path d="M29.9073 0.191895C26.6937 0.191895 24.1312 1.80615 22.5476 3.16093L22.4918 3.20889L21.5899 4.18939L23.5808 7.46115L25.0543 5.98371C26.5962 4.68161 28.3174 3.96609 29.9073 3.96609C33.1153 3.96609 35.7258 6.50581 35.7258 9.62738C35.7258 12.749 33.1153 15.2887 29.9073 15.2887C25.0323 15.2887 21.7188 8.84502 21.6858 8.77976C21.494 8.39212 17.292 0.191895 10.0927 0.191895C4.80337 0.191895 0.5 4.4245 0.5 9.62738C0.5 14.8303 4.80337 19.0629 10.0927 19.0629C12.6836 19.0629 15.2335 18.032 17.4674 16.0812L17.5153 16.0388L18.4101 15.0654L16.4184 11.7936L14.9379 13.2781C13.3952 14.6125 11.7644 15.2887 10.0927 15.2887C6.88468 15.2887 4.27419 12.749 4.27419 9.62738C4.27419 6.50581 6.88468 3.96609 10.0927 3.96609C14.9677 3.96609 18.2812 10.4097 18.3142 10.475C18.506 10.8626 22.708 19.0629 29.9073 19.0629C35.1966 19.0629 39.5 14.8303 39.5 9.62738C39.5 4.4245 35.1966 0.191895 29.9073 0.191895Z" fill="#B5C2DD"/>
</svg>
