<svg width="26" height="26" viewBox="0 0 26 26" fill="none" xmlns="http://www.w3.org/2000/svg">
<path d="M24.7927 0.466309C24.6746 0.466309 24.5533 0.488073 24.4321 0.53782L6.51062 7.73873H1.41153C1.13792 7.73873 0.914062 7.96881 0.914062 8.25485V17.5514C0.914062 17.8374 1.13792 18.0675 1.41153 18.0675H4.57048C4.45544 18.4282 4.39637 18.8106 4.39637 19.1992C4.39637 21.2482 6.06912 22.9147 8.12741 22.9147C9.8499 22.9147 11.3019 21.7457 11.731 20.1662L24.4352 25.2715C24.5564 25.3181 24.6777 25.343 24.7958 25.343C25.3213 25.343 25.7908 24.9015 25.7908 24.3108V1.49856C25.7877 0.907815 25.3213 0.466309 24.7927 0.466309ZM8.12741 20.6854C7.30347 20.6854 6.63499 20.0201 6.63499 19.1992C6.63499 18.851 6.75625 18.5183 6.977 18.254L9.61671 19.3143C9.55453 20.0791 8.91093 20.6854 8.12741 20.6854Z" fill="#9BAED3"/>
</svg>
