<svg width="32" height="23" viewBox="0 0 32 23" fill="none" xmlns="http://www.w3.org/2000/svg">
<path d="M19.1626 12.6606C17.9903 12.6606 16.9939 12.2503 16.1733 11.4298C15.3527 10.6092 14.9424 9.61271 14.9424 8.44043C14.9424 7.26815 15.3527 6.27171 16.1733 5.45111C16.9939 4.63052 17.9903 4.22022 19.1626 4.22022C20.3349 4.22022 21.3313 4.63052 22.1519 5.45111C22.9725 6.27171 23.3828 7.26815 23.3828 8.44043C23.3828 9.61271 22.9725 10.6092 22.1519 11.4298C21.3313 12.2503 20.3349 12.6606 19.1626 12.6606ZM9.31543 16.8809C8.54173 16.8809 7.87915 16.6051 7.32771 16.0537C6.77627 15.5023 6.50102 14.8402 6.50196 14.0674V2.81348C6.50196 2.03977 6.77768 1.3772 7.32912 0.825758C7.88056 0.274316 8.54266 -0.000935437 9.31543 2.38835e-06H29.0098C29.7835 2.38835e-06 30.446 0.275723 30.9975 0.827164C31.5489 1.37861 31.8242 2.04071 31.8232 2.81348V14.0674C31.8232 14.8411 31.5475 15.5037 30.9961 16.0551C30.4446 16.6065 29.7825 16.8818 29.0098 16.8809H9.31543ZM12.1289 14.0674H26.1963C26.1963 13.2937 26.472 12.6311 27.0235 12.0797C27.5749 11.5282 28.237 11.253 29.0098 11.2539V5.62696C28.2361 5.62696 27.5735 5.35123 27.022 4.79979C26.4706 4.24835 26.1954 3.58625 26.1963 2.81348H12.1289C12.1289 3.58718 11.8532 4.24976 11.3017 4.8012C10.7503 5.35264 10.0882 5.62789 9.31543 5.62696V11.2539C10.0891 11.2539 10.7517 11.5296 11.3032 12.0811C11.8546 12.6325 12.1298 13.2946 12.1289 14.0674ZM27.603 22.5078H3.68848C2.91477 22.5078 2.2522 22.2321 1.70076 21.6807C1.14932 21.1292 0.874065 20.4671 0.875002 19.6943V4.22022H3.68848V19.6943H27.603V22.5078Z" fill="#9BAED3"/>
</svg>
