<svg width="30" height="31" viewBox="0 0 30 31" fill="none" xmlns="http://www.w3.org/2000/svg">
<path d="M11.8476 21.9202C12.4956 22.2492 13.0838 22.6529 13.6121 23.1315C14.1405 23.61 14.5891 24.1483 14.9579 24.7464C15.3268 25.3446 15.6109 25.9826 15.8103 26.6605C16.0097 27.3384 16.1094 28.0462 16.1094 28.7839H14.1953C14.1953 27.9964 14.0458 27.2537 13.7467 26.5558C13.4476 25.858 13.0389 25.2499 12.5205 24.7315C12.0021 24.2131 11.389 23.7994 10.6812 23.4903C9.97341 23.1813 9.23071 23.0318 8.45312 23.0417C7.6556 23.0417 6.9129 23.1913 6.22504 23.4903C5.53717 23.7894 4.92906 24.1981 4.4007 24.7165C3.87233 25.2349 3.45862 25.848 3.15955 26.5558C2.86047 27.2636 2.71094 28.0063 2.71094 28.7839H0.796875C0.796875 28.0562 0.896566 27.3534 1.09595 26.6755C1.29533 25.9976 1.57945 25.3546 1.9483 24.7464C2.31716 24.1383 2.76577 23.6 3.29413 23.1315C3.82249 22.6629 4.41066 22.2592 5.05865 21.9202C4.32094 21.3819 3.74772 20.709 3.33899 19.9015C2.93026 19.094 2.72091 18.2267 2.71094 17.2995C2.71094 16.512 2.86047 15.7693 3.15955 15.0715C3.45862 14.3736 3.86735 13.7655 4.38574 13.2471C4.90413 12.7287 5.51225 12.315 6.21008 12.006C6.90792 11.6969 7.6556 11.5474 8.45312 11.5574C9.37028 11.5574 10.2326 11.7617 11.0401 12.1705C11.8476 12.5792 12.5255 13.1574 13.0738 13.9051C13.4526 13.1574 13.9361 12.4895 14.5243 11.9013C15.1125 11.3131 15.7854 10.8296 16.543 10.4508C15.8053 9.90249 15.2321 9.22459 14.8234 8.41709C14.4146 7.6096 14.2053 6.74229 14.1953 5.81517C14.1953 5.02761 14.3448 4.28491 14.6439 3.58708C14.943 2.88924 15.3517 2.28113 15.8701 1.76274C16.3885 1.24434 16.9966 0.830627 17.6945 0.521585C18.3923 0.212544 19.14 0.063008 19.9375 0.0729771C20.7251 0.0729771 21.4678 0.222513 22.1656 0.521585C22.8634 0.820658 23.4715 1.22939 23.9899 1.74778C24.5083 2.26617 24.922 2.87927 25.2311 3.58708C25.5401 4.29488 25.6897 5.03758 25.6797 5.81517C25.6797 6.75226 25.4654 7.63452 25.0367 8.46196C24.608 9.28939 24.0099 9.97227 23.2422 10.5106C23.7108 10.7598 24.1594 11.0539 24.5881 11.3929C25.0167 11.7318 25.4055 12.1156 25.7545 12.5443C26.1034 12.973 26.4174 13.4216 26.6965 13.8901C26.9757 14.3587 27.19 14.8571 27.3395 15.3855H25.3358C25.1164 14.8671 24.8223 14.3786 24.4535 13.92C24.0846 13.4614 23.6609 13.0527 23.1824 12.6938C22.7039 12.3349 22.1905 12.0608 21.6422 11.8714C21.0939 11.682 20.5257 11.5823 19.9375 11.5723C19.14 11.5723 18.3973 11.7218 17.7094 12.0209C17.0215 12.32 16.4134 12.7287 15.8851 13.2471C15.3567 13.7655 14.943 14.3736 14.6439 15.0715C14.3448 15.7693 14.1953 16.512 14.1953 17.2995C14.1953 18.2167 13.9909 19.079 13.5822 19.8865C13.1735 20.694 12.5953 21.3719 11.8476 21.9202ZM19.9375 1.98704C19.4091 1.98704 18.9157 2.08673 18.4571 2.28611C17.9985 2.48549 17.5898 2.75964 17.2309 3.10856C16.872 3.45748 16.5979 3.86123 16.4084 4.3198C16.219 4.77838 16.1193 5.27683 16.1094 5.81517C16.1094 6.34353 16.2091 6.837 16.4084 7.29557C16.6078 7.75415 16.882 8.16288 17.2309 8.52177C17.5798 8.88066 17.9836 9.15481 18.4421 9.34422C18.9007 9.53363 19.3992 9.63332 19.9375 9.64329C20.4659 9.64329 20.9593 9.5436 21.4179 9.34422C21.8765 9.14484 22.2852 8.87069 22.6441 8.52177C23.003 8.17285 23.2771 7.7691 23.4666 7.31053C23.656 6.85195 23.7557 6.3535 23.7656 5.81517C23.7656 5.2868 23.6659 4.79333 23.4666 4.33476C23.2672 3.87618 22.993 3.46745 22.6441 3.10856C22.2952 2.74967 21.8914 2.47552 21.4329 2.28611C20.9743 2.0967 20.4758 1.99701 19.9375 1.98704ZM4.625 17.2995C4.625 17.8279 4.72469 18.3214 4.92407 18.7799C5.12345 19.2385 5.3976 19.6473 5.74652 20.0061C6.09544 20.365 6.49919 20.6392 6.95776 20.8286C7.41634 21.018 7.91479 21.1177 8.45312 21.1277C8.98149 21.1277 9.47496 21.028 9.93353 20.8286C10.3921 20.6292 10.8008 20.3551 11.1597 20.0061C11.5186 19.6572 11.7928 19.2535 11.9822 18.7949C12.1716 18.3363 12.2713 17.8379 12.2812 17.2995C12.2812 16.7712 12.1816 16.2777 11.9822 15.8191C11.7828 15.3606 11.5086 14.9518 11.1597 14.5929C10.8108 14.234 10.4071 13.9599 9.94849 13.7705C9.48991 13.5811 8.99146 13.4814 8.45312 13.4714C7.92476 13.4714 7.43129 13.5711 6.97272 13.7705C6.51414 13.9699 6.10541 14.244 5.74652 14.5929C5.38763 14.9419 5.11348 15.3456 4.92407 15.8042C4.73466 16.2628 4.63497 16.7612 4.625 17.2995ZM29.5078 23.0417V30.698H19.9375V23.0417H20.8945V21.1277C20.8945 20.5993 20.9942 20.1058 21.1936 19.6473C21.393 19.1887 21.6671 18.7799 22.0161 18.4211C22.365 18.0622 22.7687 17.788 23.2273 17.5986C23.6859 17.4092 24.1843 17.3095 24.7227 17.2995C25.251 17.2995 25.7445 17.3992 26.2031 17.5986C26.6616 17.798 27.0704 18.0721 27.4293 18.4211C27.7881 18.77 28.0623 19.1737 28.2517 19.6323C28.4411 20.0909 28.5408 20.5893 28.5508 21.1277V23.0417H29.5078ZM22.8086 23.0417H26.6367V21.1277C26.6367 20.8585 26.5869 20.6093 26.4872 20.38C26.3875 20.1507 26.2529 19.9513 26.0834 19.7818C25.914 19.6124 25.7096 19.4728 25.4703 19.3631C25.2311 19.2535 24.9819 19.2036 24.7227 19.2136C24.4535 19.2136 24.2043 19.2634 23.975 19.3631C23.7457 19.4628 23.5463 19.5974 23.3768 19.7669C23.2074 19.9364 23.0678 20.1407 22.9581 20.38C22.8485 20.6192 22.7986 20.8685 22.8086 21.1277V23.0417ZM27.5938 24.9558H21.8516V28.7839H27.5938V24.9558Z" fill="#9BAED3"/>
</svg>
