<svg width="37" height="28" viewBox="0 0 37 28" fill="none" xmlns="http://www.w3.org/2000/svg">
<path d="M24.1899 13.9799C22.6568 13.9799 21.1744 13.2953 20.0141 12.053C18.8859 10.8413 18.1968 9.22538 18.0753 7.50434C17.9455 5.66847 18.5056 3.98025 19.6517 2.74987C20.7978 1.51949 22.4003 0.855835 24.1899 0.855835C25.9669 0.855835 27.5738 1.53142 28.7162 2.75882C29.8698 3.99814 30.4313 5.68339 30.3015 7.5036C30.177 9.22687 29.4887 10.842 28.3627 12.0523C27.2054 13.2953 25.7238 13.9799 24.1899 13.9799ZM34.0202 27.1039H14.3603C14.0442 27.1056 13.732 27.0347 13.4475 26.8968C13.1631 26.7588 12.9142 26.5575 12.7198 26.3082C12.5136 26.038 12.3712 25.7247 12.3033 25.3916C12.2354 25.0586 12.2437 24.7145 12.3276 24.3851C12.9554 21.864 14.5109 19.7731 16.8255 18.3391C18.8799 17.067 21.495 16.366 24.1899 16.366C26.9377 16.366 29.4842 17.0372 31.5505 18.3085C33.8703 19.735 35.4281 21.8379 36.053 24.3896C36.1358 24.7192 36.1432 25.0633 36.0745 25.3962C36.0058 25.729 35.8629 26.0421 35.6563 26.312C35.4621 26.5601 35.2137 26.7604 34.9301 26.8977C34.6465 27.035 34.3353 27.1055 34.0202 27.1039ZM10.0965 14.2781C7.47243 14.2781 5.16529 11.8383 4.95127 8.83986C4.84539 7.30376 5.32412 5.88323 6.2935 4.84151C7.25245 3.81023 8.60512 3.24202 10.0965 3.24202C11.5879 3.24202 12.9301 3.81321 13.8942 4.85046C14.8711 5.90038 15.3483 7.31792 15.2365 8.84135C15.0225 11.839 12.7161 14.2781 10.0965 14.2781ZM14.9926 16.6233C13.681 15.982 11.9786 15.6614 10.0972 15.6614C7.90045 15.6614 5.76705 16.2341 4.08927 17.2735C2.18703 18.454 0.907436 20.1728 0.390678 22.248C0.315054 22.5465 0.307902 22.8582 0.369755 23.1599C0.431608 23.4615 0.560866 23.7453 0.74786 23.9899C0.925293 24.2177 1.1526 24.4017 1.41231 24.5279C1.67202 24.6541 1.95721 24.719 2.24594 24.7177H10.523C10.6627 24.7177 10.798 24.6686 10.9052 24.5791C11.0125 24.4896 11.0849 24.3652 11.1099 24.2278C11.1181 24.1808 11.1285 24.1338 11.1404 24.0876C11.7728 21.5478 13.2545 19.4017 15.4438 17.8373C15.5243 17.7792 15.5891 17.702 15.6322 17.6126C15.6754 17.5232 15.6955 17.4245 15.6908 17.3253C15.6862 17.2262 15.6568 17.1297 15.6055 17.0448C15.5541 16.9598 15.4824 16.889 15.3968 16.8388C15.2797 16.7702 15.1455 16.6979 14.9926 16.6233Z" fill="#98D888"/>
</svg>
